<svg xmlns="http://www.w3.org/2000/svg" width="650" height="300" viewBox="0 0 650 300"><path fill="#084F6A" stroke="#1C5872" stroke-width="2" d="M651 255.561c0 23.99-19.449 43.439-43.441 43.439h-563.118c-23.992 0-43.441-19.449-43.441-43.439v-210.124c0-23.991 19.449-43.44 43.44-43.44h563.118c23.992 0 43.44 19.449 43.44 43.44l.002 210.124z"/><path fill="#1A3C49" d="M39.876 31.865h75.508v110.857h-75.508z"/><path stroke="#00000B" stroke-width=".868" fill="none" d="M39.876 88.053h75.508M39.876 142.723v-110.858h75.508"/><path fill="#1A3C49" d="M139.556 31.865h75.51v110.857h-75.51z"/><path stroke="#00000B" stroke-width=".868" fill="none" d="M139.556 88.053h75.51M139.556 142.723v-110.858h75.51"/><path fill="#1A3C49" d="M239.232 31.865h75.512v110.857h-75.512z"/><path stroke="#00000B" stroke-width=".868" fill="none" d="M239.232 88.053h75.513M239.232 142.723v-110.858h75.513"/><path fill="#1A3C49" d="M338.907 31.865h75.519v110.857h-75.519z"/><path stroke="#00000B" stroke-width=".868" fill="none" d="M338.907 88.053h75.519M338.907 142.723v-110.858h75.519"/><path fill="#1A3C49" d="M139.556 157.904h75.51v110.859h-75.51z"/><path stroke="#00000B" stroke-width=".868" fill="none" d="M139.556 214.092h75.51M139.556 268.764v-110.86h75.51"/><path fill="#1A3C49" d="M239.232 157.904h75.512v110.859h-75.512z"/><path stroke="#00000B" stroke-width=".868" fill="none" d="M239.232 214.092h75.513M239.232 268.764v-110.86h75.513"/><path fill="#1A3C49" d="M338.907 157.904h75.519v110.859h-75.519z"/><path stroke="#00000B" stroke-width=".868" fill="none" d="M338.907 214.092h75.519M338.907 268.764v-110.86h75.519"/><path fill="#1A3C49" d="M438.588 157.904h75.518v110.859h-75.518z"/><path stroke="#00000B" stroke-width=".868" fill="none" d="M438.588 214.092h75.517M438.588 268.764v-110.86h75.517"/><path fill="#1A3C49" d="M538.268 157.904h75.512v110.859h-75.512z"/><path stroke="#00000B" stroke-width=".868" fill="none" d="M538.268 214.092h75.511M538.268 268.764v-110.86h75.511"/><path fill="#1A3C49" d="M39.087 158.262h75.518v110.869h-75.518z"/><path stroke="#00000B" stroke-width=".868" fill="none" d="M39.087 214.453h75.518M39.087 269.131v-110.869h75.518"/><path fill="#FFCA2C" d="M371.15 123.757v-30.919l-23.008-41.946h10.752l10.213 20.108c2.688 5.513 4.945 9.946 7.203 15.027h.215c1.937-4.757 4.516-9.514 7.312-15.027l10.43-20.108h10.537l-24.193 41.838v31.027h-9.461zM99.121 89.594h-28.061v26.271h31.395v7.892h-40.856v-72.866h39.242v7.893h-29.781v23.027h28.062v7.783zM258.125 112.297c4.192 2.703 10.214 4.757 16.665 4.757 9.568 0 15.16-4.973 15.16-12.433 0-6.703-3.871-10.703-13.654-14.378-11.827-4.324-19.138-10.595-19.138-20.757 0-11.352 9.354-19.784 23.438-19.784 7.312 0 12.794 1.729 15.912 3.567l-2.58 7.676c-2.258-1.405-7.096-3.459-13.654-3.459-9.891 0-13.653 5.946-13.653 10.919 0 6.811 4.407 10.162 14.406 14.054 12.258 4.865 18.385 10.703 18.385 21.405 0 11.243-8.17 21.081-25.266 21.081-6.987 0-14.622-2.162-18.492-4.756l2.471-7.892zM164.816 100.837l-7.525 22.919h-9.677l24.621-72.865h11.289l24.729 72.865h-9.999l-7.741-22.919h-25.697zm23.761-7.351l-7.203-20.973c-1.505-4.756-2.581-9.081-3.656-13.297h-.322c-.968 4.216-2.149 8.757-3.548 13.189l-7.096 21.081h21.825zM271.146 248.859v-30.775l-22.899-41.75h10.7l10.166 20.014c2.676 5.488 4.924 9.9 7.171 14.957h.214c1.926-4.734 4.495-9.469 7.276-14.957l10.38-20.014h10.487l-24.077 41.643v30.883h-9.418v-.001zM176.238 250.043c-19.154 0-32.424-14.85-32.424-36.801 0-23.027 14.125-38.092 33.388-38.092 19.797 0 32.53 15.172 32.53 36.692 0 24.856-15.088 38.199-33.387 38.199l-.107.002zm.429-7.641c14.767 0 23.113-13.666 23.113-30.129 0-14.42-7.49-29.483-23.007-29.483s-23.221 14.526-23.221 30.237c0 15.279 8.347 29.375 23.007 29.375h.108zM71.932 248.859l-23.648-72.525h10.166l11.235 35.725c2.996 9.793 5.671 18.724 7.705 27.116h.214c2.033-8.394 4.922-17.54 8.24-27.009l12.199-35.832h9.952l-25.79 72.525h-10.273zM363.788 226.047l-7.491 22.813h-9.632l24.507-72.524h11.235l24.613 72.524h-9.953l-7.705-22.813h-25.574zm23.65-7.317l-7.17-20.877c-1.498-4.733-2.568-9.037-3.639-13.234h-.32c-.963 4.197-2.141 8.716-3.531 13.128l-7.063 20.983h21.723zM505.497 245.631c-4.172 1.614-12.52 3.982-22.258 3.982-10.914 0-19.903-2.799-26.967-9.578-6.205-6.025-10.059-15.71-10.059-27.008 0-21.629 14.875-37.447 39.059-37.447 8.348 0 14.982 1.83 18.086 3.336l-2.354 7.641c-3.853-1.83-8.668-3.121-15.943-3.121-17.551 0-29 10.977-29 29.162 0 18.399 10.914 29.269 27.822 29.269 6.1 0 10.272-.861 12.412-1.938v-21.629h-14.554v-7.532h23.756v34.863zM594.488 214.855h-27.93v26.147h31.246v7.854h-40.664v-72.524h39.059v7.854h-29.641v22.92h27.93v7.749z"/><path fill="#fff" d="M611.5 30.371l-105.548-.006 27.819 27.81-39.132 35.128 50.92 50.92 38.117-36.129 27.824 27.818z"/></svg>